<svg width="149" height="34" viewBox="0 0 149 34" fill="none" xmlns="http://www.w3.org/2000/svg">
<g filter="url(#filter0_d_2_3)">
<path d="M4.024 0.608H9.464L14.488 15.392L13.752 15.072L18.136 4.16L20.28 10.528L13.496 25.088L4.024 0.608ZM15.832 0.608H20.44L26.232 14.912L25.4 14.784L29.72 0.608H34.712L25.624 25.024L15.832 0.608ZM38.79 0.447998H54.854V4.928H43.43V9.952H53.542V14.432H43.43V19.52H55.302V24H38.79V0.447998ZM60.1025 0.447998H64.7425V19.52H75.8145V24H60.1025V0.447998ZM80.6025 24V0.447998H87.6425C90.0105 0.447998 92.0265 0.799999 93.6905 1.504C95.3545 2.208 96.6878 3.14667 97.6905 4.32C98.7145 5.49333 99.4612 6.80533 99.9305 8.256C100.4 9.70667 100.635 11.168 100.635 12.64C100.635 14.3893 100.315 15.968 99.6745 17.376C99.0558 18.7627 98.2025 19.9573 97.1145 20.96C96.0265 21.9413 94.7678 22.6987 93.3385 23.232C91.9092 23.744 90.3945 24 88.7945 24H80.6025ZM85.2425 19.52H87.9945C89.1678 19.52 90.2345 19.3707 91.1945 19.072C92.1545 18.752 92.9758 18.2933 93.6585 17.696C94.3625 17.0987 94.8958 16.352 95.2585 15.456C95.6425 14.5387 95.8345 13.4933 95.8345 12.32C95.8345 10.784 95.5785 9.536 95.0665 8.576C94.5758 7.59467 93.9572 6.83733 93.2105 6.304C92.4852 5.77067 91.7385 5.408 90.9705 5.216C90.2025 5.00267 89.5518 4.896 89.0185 4.896H85.2425V19.52ZM105.29 0.447998H121.354V4.928H109.93V9.952H120.042V14.432H109.93V19.52H121.802V24H105.29V0.447998ZM133.739 0.447998C135.211 0.447998 136.523 0.639998 137.675 1.024C138.827 1.38667 139.787 1.92 140.555 2.624C141.344 3.30667 141.941 4.13867 142.347 5.12C142.752 6.08 142.955 7.168 142.955 8.384C142.955 9.344 142.805 10.304 142.507 11.264C142.229 12.224 141.76 13.0987 141.099 13.888C140.459 14.6773 139.605 15.3173 138.539 15.808C137.472 16.2773 136.149 16.512 134.571 16.512H131.243V24H126.603V0.447998H133.739ZM134.539 12.032C135.243 12.032 135.829 11.9147 136.299 11.68C136.768 11.4453 137.131 11.1467 137.387 10.784C137.664 10.4213 137.856 10.048 137.963 9.664C138.091 9.25867 138.155 8.88533 138.155 8.544C138.155 8.288 138.112 7.968 138.027 7.584C137.963 7.17867 137.813 6.77333 137.579 6.368C137.344 5.96267 136.981 5.62133 136.491 5.344C136.021 5.06667 135.381 4.928 134.571 4.928H131.243V12.032H134.539ZM138.891 14.912L144.715 24H139.307L133.355 15.04L138.891 14.912Z" fill="white"/>
</g>
<defs>
<filter id="filter0_d_2_3" x="0.0240021" y="0.447998" width="148.69" height="32.64" filterUnits="userSpaceOnUse" color-interpolation-filters="sRGB">
<feFlood flood-opacity="0" result="BackgroundImageFix"/>
<feColorMatrix in="SourceAlpha" type="matrix" values="0 0 0 0 0 0 0 0 0 0 0 0 0 0 0 0 0 0 127 0" result="hardAlpha"/>
<feOffset dy="4"/>
<feGaussianBlur stdDeviation="2"/>
<feComposite in2="hardAlpha" operator="out"/>
<feColorMatrix type="matrix" values="0 0 0 0 0 0 0 0 0 0 0 0 0 0 0 0 0 0 0.25 0"/>
<feBlend mode="normal" in2="BackgroundImageFix" result="effect1_dropShadow_2_3"/>
<feBlend mode="normal" in="SourceGraphic" in2="effect1_dropShadow_2_3" result="shape"/>
</filter>
</defs>
</svg>
